<svg width="30" height="31" viewBox="0 0 30 31" fill="none" xmlns="http://www.w3.org/2000/svg">
<path d="M27.84 3.61H21.75V1.29C21.75 1.1305 21.6195 1 21.46 1H19.43C19.2705 1 19.14 1.1305 19.14 1.29V3.61H9.86V1.29C9.86 1.1305 9.7295 1 9.57 1H7.54C7.3805 1 7.25 1.1305 7.25 1.29V3.61H1.16C0.518375 3.61 0 4.12837 0 4.77V28.84C0 29.4816 0.518375 30 1.16 30H27.84C28.4816 30 29 29.4816 29 28.84V4.77C29 4.12837 28.4816 3.61 27.84 3.61ZM26.39 27.39H2.61V13.615H26.39V27.39ZM26.39 11.15H2.61V6.22H7.25V7.96C7.25 8.1195 7.3805 8.25 7.54 8.25H9.57C9.7295 8.25 9.86 8.1195 9.86 7.96V6.22H19.14V7.96C19.14 8.1195 19.2705 8.25 19.43 8.25H21.46C21.6195 8.25 21.75 8.1195 21.75 7.96V6.22H26.39V11.15Z" fill="#1A2E38"/>
</svg>
